# xmcd CD database file generated by Grip 3.2.0
# 
# Track frame offsets:
#       150
#       18195
#       35802
#       55527
#       74220
#       95527
#       122225
#       143365
#       160215
#       170800
# 
# Disc length: 2609 seconds
# 
# Revision: 1
# Processed by: cddbd v1.5.2PL0 Copyright (c) Steve Scherf et al.
# Submitted via: Grip 3.2.0
# 
DISCID=8a0a2f0a
DTITLE=Mike Bloomfield - Cherry Red
DYEAR=1994
DGENRE=Blues
TTITLE0=Hully Gully
TTITLE1=Wings Of An Angel
TTITLE2=Walin' The Floor
TTITLE3=Don't You Lie To Me
TTITLE4=Junko Partner
TTITLE5=Knockin' Myself Out
TTITLE6=Women Lovin' Each Over
TTITLE7=Cherry Red
TTITLE8=RX For The Blues
TTITLE9=You Must Have Jesus
EXTD=
EXTT0=
EXTT1=
EXTT2=
EXTT3=
EXTT4=
EXTT5=
EXTT6=
EXTT7=
EXTT8=
EXTT9=
PLAYORDER=
